<svg width="31" height="30" viewBox="0 0 31 30" fill="none" xmlns="http://www.w3.org/2000/svg">
<g id="Media / Icon/Filled/check-circle">
<path id="Icon" opacity="0.63" fill-rule="evenodd" clip-rule="evenodd" d="M15.4975 24.9642C21.1402 24.9642 25.7145 20.3899 25.7145 14.7472C25.7145 9.10457 21.1402 4.53027 15.4975 4.53027C9.85481 4.53027 5.28052 9.10457 5.28052 14.7472C5.28052 20.3899 9.85481 24.9642 15.4975 24.9642ZM20.2319 13.0961C20.7307 12.5973 20.7307 11.7887 20.2319 11.2899C19.7332 10.7912 18.9245 10.7912 18.4258 11.2899L14.2204 15.4954L12.5692 13.8442C12.0704 13.3454 11.2618 13.3454 10.7631 13.8442C10.2643 14.3429 10.2643 15.1516 10.7631 15.6503L13.3173 18.2045C13.8161 18.7033 14.6247 18.7033 15.1234 18.2045L20.2319 13.0961Z" fill="#8BB89B"/>
</g>
</svg>
