<svg width="118" height="85" viewBox="0 0 118 85" fill="none" xmlns="http://www.w3.org/2000/svg">
<path d="M117.61 62.2533C117.359 51.3115 114.052 36.7072 108.761 23.1855C106.344 16.989 103.721 11.6678 101.19 7.82092C97.8144 2.66101 94.7812 0.265342 91.5884 0.265342C89.7868 0.265342 88.1676 0.196237 86.6168 0.127131C82.6942 -0.0341162 79.2961 -0.172328 76.3542 1.04854C73.321 2.31548 71.565 4.68812 70.4931 7.06075H48.0066C46.9348 4.66508 45.1787 2.29245 42.1456 1.02551C39.1808 -0.195363 35.8056 -0.0571511 31.883 0.104096C30.3094 0.173202 28.6902 0.242307 26.9113 0.242307C23.7185 0.242307 20.6854 2.63798 17.3101 7.79788C14.7787 11.6678 12.1788 16.989 9.7386 23.1855C4.44766 36.6841 1.14083 51.2885 0.889967 62.2533C0.456658 81.4647 9.41932 84.7357 14.8015 84.9891H15.2804C20.6626 84.9891 26.5692 80.8197 33.2969 72.2967C36.4669 68.2885 39.0212 64.2804 40.4123 62.0229H78.0874C79.4558 64.2804 82.0328 68.2655 85.2028 72.2967C92.1586 81.0731 98.2021 85.2425 103.698 84.9891C109.08 84.7588 118.043 81.4647 117.61 62.2533ZM82.5346 36.5229C82.5346 38.55 80.8925 40.2085 78.8856 40.2085H77.9962C75.9893 40.2085 74.3473 38.55 74.3473 36.5229C74.3473 34.4958 75.9893 32.8372 77.9962 32.8372H78.8856C80.8925 32.8603 82.5346 34.4727 82.5346 36.5229ZM44.1525 36.5229C44.1525 38.55 42.5105 40.2085 40.5036 40.2085H35.8968V44.8617C35.8968 46.8888 34.2548 48.5473 32.2479 48.5473C30.241 48.5473 28.599 46.8888 28.599 44.8617V40.2085H23.9922C21.9853 40.2085 20.3433 38.55 20.3433 36.5229C20.3433 34.4958 21.9853 32.8372 23.9922 32.8372H28.599V28.1841C28.599 26.157 30.241 24.4985 32.2479 24.4985C34.2548 24.4985 35.8968 26.157 35.8968 28.1841V32.8372H40.5036C42.5333 32.8603 44.1525 34.4727 44.1525 36.5229ZM89.9008 28.1611V29.0825C89.9008 31.1096 88.2588 32.7681 86.2519 32.7681C84.245 32.7681 82.603 31.1096 82.603 29.0825V28.1611C82.603 26.134 84.245 24.4754 86.2519 24.4754C88.2588 24.4754 89.9008 26.134 89.9008 28.1611ZM89.9008 43.9863V44.8847C89.9008 46.9118 88.2588 48.5703 86.2519 48.5703C84.245 48.5703 82.603 46.9118 82.603 44.8847V43.9863C82.603 41.9592 84.245 40.3007 86.2519 40.3007C88.2588 40.2776 89.9008 41.9362 89.9008 43.9863ZM98.1565 36.5229C98.1565 38.55 96.5145 40.2085 94.5076 40.2085H93.5953C91.5884 40.2085 89.9464 38.55 89.9464 36.5229C89.9464 34.4958 91.5884 32.8372 93.5953 32.8372H94.5076C96.5373 32.8603 98.1565 34.4727 98.1565 36.5229ZM67.5512 14.409C65.2934 18.0716 62.0094 19.4537 59.2499 19.4537C56.4904 19.4537 53.2064 18.0486 50.9486 14.409H67.5512Z" fill="white"/>
</svg>
