<svg width="102" height="96" viewBox="0 0 102 96" fill="none" xmlns="http://www.w3.org/2000/svg">
<path d="M64.0807 0.783203H37.8815C36.8317 0.783203 35.8621 1.38432 35.3373 2.36177C34.8125 3.33921 34.8124 4.54145 35.3373 5.51889L63.3464 57.6115H96.3847L66.6219 2.35861C66.3638 1.87975 65.9932 1.48217 65.5473 1.20569C65.1013 0.9292 64.5955 0.78351 64.0807 0.783203ZM30.9361 10.2434L1.17081 65.5011C0.918817 65.9681 0.782532 66.4968 0.774989 67.0366C0.767447 67.5764 0.8889 68.1092 1.12773 68.5842L13.8172 93.8412C14.0654 94.3353 14.4317 94.7493 14.8785 95.0403C15.3253 95.3314 15.8363 95.489 16.3586 95.4968H16.4017C16.9173 95.4966 17.4238 95.3506 17.8704 95.0736C18.3169 94.7965 18.6878 94.398 18.9459 93.9182L47.4351 40.9296L30.9361 10.2434ZM100.614 65.4643C100.354 64.9951 99.9848 64.6067 99.5428 64.337C99.1009 64.0673 98.6013 63.9256 98.0931 63.9257H42.0111L25.0387 95.497H85.4038C85.9334 95.497 86.4531 95.3431 86.9081 95.0517C87.363 94.7602 87.7362 94.3421 87.9881 93.8414L100.678 68.5844C100.919 68.1028 101.04 67.5622 101.029 67.0154C101.018 66.4685 100.875 65.9341 100.614 65.4643Z" fill="white"/>
</svg>
