<svg width="107" height="105" viewBox="0 0 107 105" fill="none" xmlns="http://www.w3.org/2000/svg">
<path d="M53.7762 0.859375C24.4874 0.859375 0.764893 24.6338 0.764893 53.9557C0.764893 77.4194 15.9526 97.317 37.0114 104.332C39.6619 104.832 40.6338 103.189 40.6338 101.779C40.6338 100.518 40.5896 97.1774 40.5675 92.7512C25.8216 95.9527 22.7116 85.6279 22.7116 85.6279C20.2995 79.4997 16.8141 77.8607 16.8141 77.8607C12.0121 74.5692 17.1851 74.6367 17.1851 74.6367C22.5084 75.006 25.3047 80.1076 25.3047 80.1076C30.0315 88.226 37.7138 85.8801 40.7442 84.5247C41.2213 81.0891 42.5864 78.7522 44.1016 77.4239C32.3287 76.0956 19.955 71.5298 19.955 51.1865C19.955 45.3914 22.0092 40.6546 25.4107 36.9398C24.8143 35.598 23.0252 30.1992 25.8746 22.8868C25.8746 22.8868 30.3143 21.4639 40.4527 28.3306C44.6936 27.1509 49.1995 26.5655 53.7055 26.5385C58.2115 26.5655 62.7174 27.1509 66.9583 28.3306C77.0305 21.4639 81.4701 22.8868 81.4701 22.8868C84.3195 30.1992 82.5304 35.598 82.0003 36.9398C85.3797 40.6546 87.4339 45.3914 87.4339 51.1865C87.4339 71.5839 75.0425 76.0731 63.2475 77.3789C65.1029 78.9729 66.8258 82.2283 66.8258 87.2039C66.8258 94.3092 66.7595 100.019 66.7595 101.743C66.7595 103.135 67.6872 104.796 70.404 104.265C91.613 97.2945 106.787 77.3834 106.787 53.9557C106.787 24.6338 83.0517 0.859375 53.7762 0.859375Z" fill="white"/>
</svg>
