<svg width="107" height="40" viewBox="0 0 107 40" fill="none" xmlns="http://www.w3.org/2000/svg">
<path d="M0.94104 34.4343H4.61223V35.0811H1.68586V36.8966H4.29464V37.5358H1.68586V39.6388H0.94104V34.4343ZM8.75603 37.7363C8.75603 38.5836 8.27964 39.045 7.5386 39.045C6.86183 39.045 6.47618 38.6592 6.47618 37.8838V35.6976H5.7616V37.967C5.7616 39.1282 6.43837 39.6842 7.45542 39.6842C8.0112 39.6842 8.50271 39.4535 8.79384 39.045V39.6388H9.4706V35.6976H8.75603V37.7363ZM12.6314 39.0828C12.2382 39.0828 12.0151 38.8445 12.0151 38.4209V36.2877H13.1456V35.7014H12.0151V34.839H11.3005V35.7014H10.6313V36.2877H11.3005V38.4512C11.3005 39.2455 11.7542 39.6842 12.5482 39.6842C12.8658 39.6842 13.1947 39.5934 13.4102 39.4081L13.1872 38.8937C13.0397 39.011 12.8393 39.079 12.6314 39.079V39.0828ZM17.6032 37.7363C17.6032 38.5836 17.1268 39.045 16.3858 39.045C15.709 39.045 15.3233 38.6592 15.3233 37.8838V35.6976H14.6088V37.967C14.6088 39.1282 15.2855 39.6842 16.3026 39.6842C16.8584 39.6842 17.3499 39.4535 17.641 39.045V39.6388H18.3178V35.6976H17.6032V37.7363ZM20.7299 36.3595V35.6976H20.0456V39.6388H20.7602V37.6758C20.7602 36.8134 21.2366 36.3444 22.0003 36.3444C22.0532 36.3444 22.1024 36.3444 22.1629 36.352V35.6598C21.471 35.6598 20.9832 35.8981 20.7299 36.3595ZM26.9343 37.6909C26.9343 37.7514 26.9267 37.8384 26.9192 37.9065H23.7244C23.8151 38.5987 24.3709 39.0601 25.1497 39.0601C25.611 39.0601 25.9966 38.9051 26.2878 38.5836L26.681 39.045C26.3256 39.4611 25.7811 39.6842 25.127 39.6842C23.8567 39.6842 23.0098 38.8445 23.0098 37.6682C23.0098 36.4919 23.8491 35.6598 24.9872 35.6598C26.1252 35.6598 26.9343 36.4768 26.9343 37.6909ZM26.2499 37.3921C26.1781 36.7302 25.679 36.2612 24.9872 36.2612C24.2953 36.2612 23.8 36.7226 23.7244 37.3921H26.2499ZM34.3939 37.6682C34.3939 38.8445 33.5318 39.6842 32.3484 39.6842C31.165 39.6842 30.2992 38.8445 30.2992 37.6682C30.2992 36.4919 31.1688 35.6598 32.3484 35.6598C33.5281 35.6598 34.3939 36.4919 34.3939 37.6682ZM33.6717 37.6682C33.6717 36.8285 33.1084 36.2839 32.3484 36.2839C31.5885 36.2839 31.0176 36.8248 31.0176 37.6682C31.0176 38.5117 31.5885 39.0601 32.3484 39.0601C33.1084 39.0601 33.6717 38.5117 33.6717 37.6682ZM35.8533 35.3496V35.6976H35.1841V36.2839H35.8533V39.6388H36.5678V36.2839H37.6983V35.6976H36.5527V35.3572C36.5527 34.9033 36.7682 34.665 37.1917 34.665C37.3996 34.665 37.5925 34.7407 37.7399 34.8504L37.9554 34.3095C37.755 34.1544 37.4563 34.0788 37.1539 34.0788C36.3145 34.0788 35.8533 34.5856 35.8533 35.3496ZM46.4283 38.6895L44.9953 34.4381H44.311L42.8478 38.6706L41.4413 34.4381H40.6776L42.4168 39.6426H43.2108L44.6324 35.4858L46.054 39.6426H46.8328L48.572 34.4381H47.865L46.432 38.6895H46.4283ZM53.0031 37.6947C53.0031 37.7552 52.9956 37.8422 52.988 37.9103H49.7932C49.884 38.6025 50.4397 39.0639 51.2186 39.0639C51.6799 39.0639 52.0655 38.9088 52.3566 38.5873L52.7498 39.0488C52.3944 39.4648 51.85 39.688 51.1959 39.688C49.9255 39.688 49.0786 38.8483 49.0786 37.672C49.0786 36.4957 49.918 35.6636 51.056 35.6636C52.194 35.6636 53.0031 36.4806 53.0031 37.6947ZM52.3188 37.3959C52.2432 36.734 51.7479 36.265 51.056 36.265C50.3641 36.265 49.8651 36.7264 49.7932 37.3959H52.3226H52.3188ZM58.44 37.672C58.44 38.8748 57.6006 39.688 56.4475 39.688C55.869 39.688 55.3624 39.4648 55.041 39.0185V39.6426H54.3567V34.1242H55.0713V36.2952C55.3964 35.8716 55.8879 35.6636 56.4475 35.6636C57.6006 35.6636 58.44 36.4654 58.44 37.672ZM57.7178 37.672C57.7178 36.8323 57.1469 36.2877 56.387 36.2877C55.627 36.2877 55.0637 36.8285 55.0637 37.672C55.0637 38.5155 55.6346 39.0639 56.387 39.0639C57.1394 39.0639 57.7178 38.5155 57.7178 37.672ZM61.2983 36.6243L62.6594 34.9449V34.4381H59.2264V35.0849H61.7293L60.4211 36.6924V37.2143H60.837C61.7293 37.2143 62.1225 37.5699 62.1225 38.1221C62.1225 38.6743 61.6764 39.045 60.8975 39.045C60.2586 39.045 59.6801 38.8143 59.3285 38.489L58.9882 39.0753C59.4268 39.4686 60.1565 39.7069 60.8975 39.7069C62.2208 39.7069 62.8673 38.9921 62.8673 38.1145C62.8673 37.3127 62.338 36.7226 61.2983 36.6281V36.6243ZM67.4648 37.3165H70.0736V36.6848H67.4648V35.0849H70.395V34.4381H66.7238V39.6426H70.5009V38.9958H67.4686V37.3165H67.4648ZM74.9169 34.1279H75.6314V39.6464H74.9471V39.0223C74.6257 39.4686 74.1229 39.6918 73.5406 39.6918C72.3875 39.6918 71.5481 38.8824 71.5481 37.6758C71.5481 36.4692 72.3875 35.6674 73.5406 35.6674C74.0964 35.6674 74.5879 35.8754 74.9169 36.299V34.1279ZM74.9244 37.6758C74.9244 36.8361 74.3535 36.2914 73.6011 36.2914C72.8487 36.2914 72.2703 36.8323 72.2703 37.6758C72.2703 38.5193 72.8412 39.0677 73.6011 39.0677C74.3611 39.0677 74.9244 38.5193 74.9244 37.6758ZM80.3083 37.7439C80.3083 38.5911 79.832 39.0526 79.0909 39.0526C78.4141 39.0526 78.0285 38.6668 78.0285 37.8914V35.7052H77.3139V37.9746C77.3139 39.1358 77.9907 39.6918 79.0077 39.6918C79.5635 39.6918 80.055 39.4611 80.3461 39.0526V39.6464H81.0229V35.7052H80.3083V37.7439ZM84.4597 36.2952C84.8907 36.2952 85.2764 36.473 85.5297 36.8588L86.0703 36.5108C85.7565 35.9624 85.1705 35.6711 84.4635 35.6711C83.2536 35.6711 82.384 36.5033 82.384 37.6796C82.384 38.8559 83.2536 39.6956 84.4635 39.6956C85.1705 39.6956 85.7565 39.3968 86.0703 38.8483L85.5297 38.5079C85.2764 38.8937 84.8907 39.0715 84.4597 39.0715C83.6884 39.0715 83.1062 38.5344 83.1062 37.6796C83.1062 36.8248 83.6846 36.2952 84.4597 36.2952ZM90.4863 37.2711V39.6502H89.8096V39.1282C89.5714 39.4838 89.1328 39.6918 88.5165 39.6918C87.6243 39.6918 87.0609 39.2152 87.0609 38.5306C87.0609 37.8989 87.4692 37.377 88.6451 37.377H89.7756V37.237C89.7756 36.6356 89.4277 36.2839 88.7207 36.2839C88.2519 36.2839 87.7755 36.4465 87.473 36.7075L87.1743 36.1704C87.5827 35.8451 88.1687 35.6636 88.8039 35.6636C89.8814 35.6636 90.4901 36.1855 90.4901 37.2635L90.4863 37.2711ZM89.7718 37.8952H88.6715C87.9645 37.8952 87.7641 38.1713 87.7641 38.5041C87.7641 38.8975 88.0893 39.1433 88.6337 39.1433C89.1782 39.1433 89.5941 38.8975 89.7718 38.4436V37.8952ZM93.6131 39.0904C93.2199 39.0904 92.9968 38.8521 92.9968 38.4285V36.2952H94.1273V35.709H92.9968V34.8466H92.2822V35.709H91.613V36.2952H92.2822V38.4587C92.2822 39.253 92.7359 39.6918 93.5299 39.6918C93.8475 39.6918 94.1764 39.601 94.3919 39.4157L94.1689 38.9013C94.0214 39.0185 93.821 39.0866 93.6131 39.0866V39.0904ZM95.9837 34.0182C95.7077 34.0182 95.4997 34.2263 95.4997 34.4873C95.4997 34.7482 95.7077 34.9487 95.9837 34.9487C96.2597 34.9487 96.4676 34.7407 96.4676 34.4721C96.4676 34.2187 96.2597 34.0182 95.9837 34.0182ZM95.6245 39.6464H96.3391V35.7052H95.6245V39.6464ZM101.799 37.6758C101.799 38.8521 100.937 39.6918 99.7532 39.6918C98.5698 39.6918 97.704 38.8521 97.704 37.6758C97.704 36.4995 98.5735 35.6674 99.7532 35.6674C100.933 35.6674 101.799 36.4995 101.799 37.6758ZM101.076 37.6758C101.076 36.8361 100.513 36.2914 99.7532 36.2914C98.9932 36.2914 98.4223 36.8323 98.4223 37.6758C98.4223 38.5193 98.9932 39.0677 99.7532 39.0677C100.513 39.0677 101.076 38.5193 101.076 37.6758ZM105.258 35.6674C104.634 35.6674 104.128 35.8981 103.836 36.299V35.7052H103.152V39.6464H103.867V37.6153C103.867 36.7605 104.358 36.3066 105.114 36.3066C105.791 36.3066 106.177 36.6848 106.177 37.4602V39.6464H106.891V37.377C106.891 36.2158 106.215 35.6674 105.254 35.6674H105.258Z" fill="white"/>
<path d="M68.9621 20.4399C68.9621 25.1716 65.117 29.0182 60.3872 29.0182H42.4282C40.965 29.0182 39.7816 27.8344 39.7816 26.3706C39.7816 24.9068 40.965 23.7229 42.4282 23.7229H60.3872C62.1982 23.7229 63.6689 22.2516 63.6689 20.4399C63.6689 18.6281 62.1982 17.1568 60.3872 17.1568C60.3872 17.1568 54.2206 17.1568 54.2169 17.1568H47.5966C42.8706 17.1568 39.0217 13.3101 39.0217 8.57839C39.0217 3.84666 42.8706 0 47.6004 0H65.5631C67.0263 0 68.2097 1.18388 68.2097 2.64765C68.2097 4.11142 67.0263 5.2953 65.5631 5.2953H47.6004C45.7894 5.2953 44.3186 6.76664 44.3186 8.57839C44.3186 10.3901 45.7894 11.8615 47.6004 11.8615H60.391C65.1208 11.8615 68.9659 15.7081 68.9659 20.4399H68.9621ZM106.891 8.64269C106.891 10.9424 105.927 13.0151 104.385 14.494C105.927 15.9691 106.891 18.0456 106.891 20.3453V20.4928C106.891 24.9673 103.251 28.6098 98.7778 28.6098H81.6317C81.3973 28.6098 81.1704 28.5757 80.9587 28.5076C80.0362 28.2202 79.3632 27.3578 79.3632 26.3403V2.64765C79.3632 1.39569 80.3802 0.378236 81.6317 0.378236C81.6657 0.378236 81.696 0.378236 81.73 0.382018C81.764 0.382018 81.7943 0.378236 81.8283 0.378236H98.7816C103.254 0.378236 106.895 4.02065 106.895 8.49518V8.64269H106.891ZM102.354 20.3453C102.354 18.3709 100.751 16.7672 98.7778 16.7672H97.7191V16.7596H83.9002V24.0709H98.7778C100.751 24.0709 102.354 22.4672 102.354 20.4928V20.3453ZM102.354 8.49518C102.354 6.52078 100.751 4.91707 98.7778 4.91707H83.9002V12.2208H98.7778C100.751 12.2208 102.354 10.6171 102.354 8.64269V8.49518ZM20.8585 15.4396L25.112 14.4902C25.2443 14.46 25.3804 14.4448 25.5127 14.4448C25.6451 14.4448 25.7812 14.46 25.9135 14.4902L26.458 14.6112L19.4596 2.03491C18.9984 1.20657 18.1326 0.688389 17.1836 0.67326C16.2346 0.650566 15.3536 1.15362 14.8697 1.97061L1.30784 24.8236C0.563016 26.0794 0.975128 27.7058 2.23415 28.4509C3.48938 29.196 5.11514 28.7837 5.85997 27.5242L17.0739 8.62756L20.8585 15.4358V15.4396ZM30.0384 21.0564L25.9097 21.9755C25.7774 22.0058 25.6413 22.0209 25.509 22.0209C25.3766 22.0209 25.2405 22.0058 25.1082 21.9755L24.405 21.8166L27.6527 27.6528C28.1367 28.5228 29.0403 29.0145 29.9666 29.0145C30.4014 29.0145 30.8437 28.9086 31.2521 28.6816C32.53 27.9705 32.9875 26.3593 32.2767 25.0808L30.0384 21.0526V21.0564ZM25.509 15.9616L25.4371 15.9691L15.2818 18.2347L17.762 18.787V22.6904C17.4369 22.8341 17.21 23.1669 17.21 23.5527C17.21 23.878 17.3726 24.1655 17.6146 24.3319C17.3688 24.4983 17.21 24.7858 17.21 25.1111C17.21 25.1489 17.21 25.1867 17.2176 25.2245V28.4849H19.0286V25.1111C19.0286 24.7858 18.866 24.4983 18.6241 24.3319C18.8698 24.1655 19.0286 23.878 19.0286 23.5527C19.0286 23.1669 18.8018 22.8341 18.4766 22.6904V18.9458L25.4409 20.5004L25.5127 20.5079L25.5846 20.5004L35.7399 18.2347L25.5846 15.9691L25.5127 15.9616H25.509Z" fill="white"/>
</svg>
