<svg width="115" height="104" viewBox="0 0 115 104" fill="none" xmlns="http://www.w3.org/2000/svg">
<g id="Group">
<path id="Vector" d="M74.8387 26.8887H40.3793C33.784 26.8887 27.4588 29.5591 22.7953 34.3126C18.1317 39.066 15.5117 45.5131 15.5117 52.2355V78.2703C15.5117 81.5989 16.1549 84.8948 17.4047 87.9701C18.6544 91.0453 20.4861 93.8395 22.7953 96.1932C25.1044 98.5468 27.8458 100.414 30.8629 101.688C33.88 102.961 37.1136 103.617 40.3793 103.617H74.8387C78.1043 103.617 81.338 102.961 84.3551 101.688C87.3722 100.414 90.1135 98.5468 92.4227 96.1932C94.7319 93.8395 96.5636 91.0453 97.8133 87.9701C99.063 84.8948 99.7063 81.5989 99.7063 78.2703V52.2355C99.7063 45.5131 97.0863 39.066 92.4227 34.3126C87.7591 29.5591 81.434 26.8887 74.8387 26.8887ZM90.523 71.9698C90.509 77.2235 88.4589 82.2587 84.8192 85.9787C81.1795 89.6987 76.2451 91.8022 71.0908 91.8308H44.145C38.9783 91.8308 34.0219 89.7451 30.3602 86.0298C26.6985 82.3145 24.6296 77.2722 24.6061 72.006V58.5179C24.6343 53.2548 26.7053 48.2171 30.3665 44.5058C34.0277 40.7944 38.9814 38.7111 44.145 38.7111H71.0908C76.2359 38.7397 81.1623 40.8356 84.8005 44.5439C88.4387 48.2522 90.495 53.2736 90.523 58.5179V71.9698Z" fill="white"/>
<path id="Vector_2" d="M71.0907 42.4766H44.1449C39.9708 42.4813 35.9688 44.1723 33.0156 47.179C30.0624 50.1857 28.3989 54.263 28.3895 58.5175V72.0056C28.3942 76.2632 30.0557 80.3451 33.0094 83.3557C35.9631 86.3663 39.9678 88.0598 44.1449 88.0646H71.0907C75.2662 88.0598 79.2691 86.3658 82.22 83.3546C85.1709 80.3435 86.8284 76.2616 86.8284 72.0056V58.5175C86.8237 54.2646 85.1641 50.1873 82.2137 47.1801C79.2634 44.1729 75.2632 42.4814 71.0907 42.4766ZM41.6226 65.3792C40.2814 65.3792 38.9702 64.974 37.8548 64.2149C36.7393 63.4557 35.8696 62.3767 35.3556 61.114C34.8415 59.8513 34.7061 58.4616 34.9664 57.1205C35.2268 55.7795 35.8713 54.5471 36.8185 53.5792C37.7656 52.6112 38.973 51.9511 40.288 51.6822C41.6031 51.4133 42.9668 51.5477 44.207 52.0684C45.4471 52.5891 46.5081 53.4727 47.2558 54.6076C48.0035 55.7426 48.4044 57.078 48.4079 58.445C48.4079 60.281 47.6936 62.042 46.4216 63.3419C45.1497 64.6417 43.4238 65.3744 41.6226 65.3792ZM68.3553 74.4316C65.5997 77.2827 61.8547 78.915 57.9287 78.976C53.854 78.8651 49.9557 77.2577 46.9514 74.4497C46.591 74.1064 46.3792 73.6312 46.3625 73.1287C46.3459 72.6262 46.5258 72.1376 46.8626 71.7702C47.1994 71.4029 47.6656 71.187 48.1586 71.17C48.6516 71.153 49.1311 71.3364 49.4914 71.6797C49.8289 72.0237 57.8221 79.4286 65.8685 71.6797C66.047 71.5192 66.2547 71.3961 66.4798 71.3175C66.7049 71.2388 66.943 71.2061 67.1805 71.2212C67.4181 71.2364 67.6503 71.299 67.8641 71.4056C68.0778 71.5123 68.2689 71.6608 68.4263 71.8426C68.5838 72.0245 68.7046 72.2362 68.7817 72.4657C68.8589 72.6951 68.891 72.9378 68.8761 73.1799C68.8613 73.422 68.7998 73.6588 68.6952 73.8766C68.5906 74.0945 68.4449 74.2893 68.2665 74.4497L68.3553 74.4316ZM73.6841 65.3792C72.3428 65.3792 71.0316 64.974 69.9162 64.2149C68.8008 63.4557 67.9311 62.3767 67.417 61.114C66.9029 59.8513 66.7675 58.4616 67.0279 57.1205C67.2882 55.7795 67.9327 54.5471 68.8799 53.5792C69.827 52.6112 71.0344 51.9511 72.3495 51.6822C73.6645 51.4133 75.0282 51.5477 76.2684 52.0684C77.5085 52.5891 78.5695 53.4727 79.3172 54.6076C80.0649 55.7426 80.4658 57.078 80.4693 58.445C80.4694 59.3618 80.2911 60.2694 79.9448 61.1155C79.5985 61.9615 79.091 62.7292 78.4517 63.374C77.8125 64.0189 77.0541 64.5281 76.2205 64.8723C75.3869 65.2165 74.4946 65.3888 73.5952 65.3792H73.6841Z" fill="white"/>
<path id="Vector_3" d="M41.6224 55.3131C41.0104 55.3131 40.4122 55.4983 39.9035 55.8453C39.3949 56.1922 38.9988 56.6853 38.7654 57.262C38.532 57.8387 38.4718 58.473 38.5925 59.0846C38.7132 59.6962 39.0093 60.2574 39.4434 60.6973C39.8774 61.1371 40.4297 61.4357 41.0304 61.5552C41.6311 61.6747 42.2531 61.6097 42.8176 61.3685C43.382 61.1273 43.8634 60.7207 44.2009 60.2003C44.5384 59.6799 44.7166 59.069 44.7131 58.4452C44.7131 58.0324 44.6331 57.6236 44.4775 57.2424C44.322 56.8612 44.0941 56.5151 43.8068 56.224C43.5196 55.9329 43.1787 55.7026 42.8039 55.5463C42.429 55.3899 42.0275 55.3107 41.6224 55.3131ZM73.595 55.3131C72.983 55.3131 72.3848 55.4983 71.8761 55.8453C71.3675 56.1922 70.9714 56.6853 70.738 57.262C70.5046 57.8387 70.4444 58.473 70.5651 59.0846C70.6858 59.6962 70.9819 60.2574 71.416 60.6973C71.85 61.1371 72.4024 61.4357 73.003 61.5552C73.6037 61.6747 74.2257 61.6097 74.7902 61.3685C75.3546 61.1273 75.8361 60.7207 76.1735 60.2003C76.511 59.6799 76.6893 59.069 76.6857 58.4452C76.6857 58.0324 76.6057 57.6236 76.4501 57.2424C76.2946 56.8612 76.0667 56.5151 75.7794 56.224C75.4922 55.9329 75.1513 55.7026 74.7765 55.5463C74.4016 55.3899 74.0001 55.3107 73.595 55.3131ZM104.235 49.8997V80.6237C110.133 79.121 114.449 72.7662 114.449 65.2707C114.449 57.7753 110.133 51.4024 104.235 49.8997ZM10.982 49.8997C5.08486 51.4024 0.768555 57.7753 0.768555 65.2707C0.768555 72.7662 5.08486 79.121 10.982 80.6237V52.2352C10.8932 51.4748 10.9287 50.6782 10.982 49.8997ZM55.3884 13.4184V23.5209H59.8291V13.4184C61.2261 12.8878 62.3958 11.8738 63.1339 10.5535C63.8719 9.23318 64.1314 7.69052 63.8669 6.19503C63.6024 4.69954 62.8308 3.34631 61.687 2.37176C60.5431 1.3972 59.0996 0.863281 57.6087 0.863281C56.1179 0.863281 54.6744 1.3972 53.5305 2.37176C52.3867 3.34631 51.6151 4.69954 51.3506 6.19503C51.0861 7.69052 51.3456 9.23318 52.0836 10.5535C52.8217 11.8738 53.9914 12.8878 55.3884 13.4184Z" fill="white"/>
</g>
</svg>
