<svg width="37" height="37" viewBox="0 0 37 37" fill="none" xmlns="http://www.w3.org/2000/svg">
<g id="Rocket">
<path id="Vector" d="M21.9984 5.4044C25.7155 1.92847 30.5764 0 35.6206 0H36.593V0.991307C36.593 6.13289 34.701 11.0875 31.2909 14.8761L15.8004 32.0856L5.11456 21.1936L21.9984 5.4044Z" fill="#FAB634"/>
<path id="Vector_2" d="M24.3385 8.35812C25.9604 6.84145 28.0814 6 30.2824 6H30.7067V6.43254C30.7067 8.67598 29.8811 10.8378 28.3932 12.4909L21.634 20L16.9714 15.2475L24.3385 8.35812Z" fill="black"/>
<path id="Vector (Stroke)" fill-rule="evenodd" clip-rule="evenodd" d="M8.8889 28.0148C9.55112 28.6845 9.55112 29.7703 8.8889 30.44L3.23647 36.156C2.57424 36.8257 1.50057 36.8257 0.838343 36.156C0.176119 35.4863 0.176119 34.4006 0.838343 33.7309L6.49077 28.0148C7.153 27.3452 8.22668 27.3452 8.8889 28.0148Z" fill="#FAB634"/>
<path id="Vector (Stroke)_2" fill-rule="evenodd" clip-rule="evenodd" d="M13.4109 32.588C14.0731 33.2576 14.0731 34.3434 13.4109 35.0131L12.2804 36.1563C11.6182 36.826 10.5445 36.826 9.88229 36.1563C9.22006 35.4866 9.22006 34.4008 9.88229 33.7312L11.0128 32.588C11.675 31.9183 12.7487 31.9183 13.4109 32.588Z" fill="#FAB634"/>
<path id="Vector (Stroke)_3" fill-rule="evenodd" clip-rule="evenodd" d="M4.36695 23.442C5.02918 24.1116 5.02918 25.1974 4.36695 25.8671L3.23647 27.0103C2.57424 27.68 1.50057 27.68 0.838343 27.0103C0.176119 26.3406 0.176119 25.2548 0.838343 24.5852L1.96883 23.442C2.63105 22.7723 3.70473 22.7723 4.36695 23.442Z" fill="#FAB634"/>
<path id="Vector_3" d="M20.662 37.0001L23.3538 23.7007L15.7441 32.0268L20.662 37.0001Z" fill="#FAB634"/>
<path id="Vector_4" d="M5.21073 21.2772L13.5782 13.3042L0.292786 15.6822L5.21073 21.2772Z" fill="#FAB634"/>
</g>
</svg>
