<svg width="626" height="89" viewBox="0 0 626 89" fill="none" xmlns="http://www.w3.org/2000/svg">
<mask id="path-1-inside-1_1_1026" fill="white">
<path d="M24.8244 20.9692V35.0358H52.3462V53.2614H24.8244V68.7959H56.0158V88H0.849867V1.76506H56.0158V20.9692H24.8244ZM168.531 1.76506V88H144.557V40.4179L128.288 88H108.228L91.8371 40.0509V88H67.8626V1.76506H96.8522L118.503 57.7872L139.664 1.76506H168.531ZM250.31 30.51C250.31 35.729 249.087 40.4994 246.64 44.8214C244.276 49.0618 240.647 52.4867 235.754 55.0962C230.943 57.6241 225.031 58.8881 218.018 58.8881H206.153V88H182.178V1.76506H218.018C224.949 1.76506 230.821 2.98825 235.632 5.43464C240.525 7.88102 244.194 11.2652 246.64 15.5871C249.087 19.9091 250.31 24.8834 250.31 30.51ZM215.694 39.8063C222.462 39.8063 225.846 36.7075 225.846 30.51C225.846 24.231 222.462 21.0915 215.694 21.0915H206.153V39.8063H215.694ZM301.286 88.8562C293.212 88.8562 285.792 86.9807 279.023 83.2296C272.255 79.3969 266.873 74.1372 262.877 67.4504C258.963 60.6821 257.006 53.0575 257.006 44.5767C257.006 36.0959 258.963 28.5122 262.877 21.8254C266.873 15.0571 272.255 9.79735 279.023 6.04623C285.792 2.29511 293.212 0.419555 301.286 0.419555C309.44 0.419555 316.861 2.29511 323.548 6.04623C330.316 9.79735 335.657 15.0571 339.571 21.8254C343.486 28.5122 345.443 36.0959 345.443 44.5767C345.443 53.0575 343.486 60.6821 339.571 67.4504C335.657 74.1372 330.316 79.3969 323.548 83.2296C316.779 86.9807 309.359 88.8562 301.286 88.8562ZM301.286 66.5942C307.401 66.5942 312.213 64.5963 315.719 60.6005C319.307 56.6048 321.101 51.2635 321.101 44.5767C321.101 37.7269 319.307 32.3448 315.719 28.4306C312.213 24.4349 307.401 22.437 301.286 22.437C295.088 22.437 290.236 24.4349 286.73 28.4306C283.223 32.3448 281.47 37.7269 281.47 44.5767C281.47 51.3451 283.223 56.7271 286.73 60.7229C290.236 64.6371 295.088 66.5942 301.286 66.5942ZM477.683 1.76506L456.522 88H427.043L415.178 35.1582L403.068 88H373.589L352.673 1.76506H378.605L388.635 60.7229L402.212 1.76506H428.511L441.721 60.2336L451.751 1.76506H477.683ZM511.831 20.9692V35.0358H539.353V53.2614H511.831V68.7959H543.022V88H487.856V1.76506H543.022V20.9692H511.831ZM598.537 88L581.412 56.197H578.844V88H554.869V1.76506H592.666C599.597 1.76506 605.468 2.98825 610.28 5.43464C615.091 7.79947 618.72 11.1021 621.166 15.3425C623.612 19.5013 624.836 24.1902 624.836 29.4092C624.836 35.2805 623.205 40.4587 619.943 44.9437C616.763 49.3472 612.074 52.4867 605.876 54.3623L625.325 88H598.537ZM578.844 39.8063H590.709C593.97 39.8063 596.417 39.0316 598.048 37.4822C599.679 35.9329 600.494 33.6903 600.494 30.7547C600.494 27.9821 599.638 25.8211 597.925 24.2718C596.295 22.6409 593.889 21.8254 590.709 21.8254H578.844V39.8063Z"/>
</mask>
<path d="M24.8244 20.9692V19.9692H23.8244V20.9692H24.8244ZM24.8244 35.0358H23.8244V36.0358H24.8244V35.0358ZM52.3462 35.0358H53.3462V34.0358H52.3462V35.0358ZM52.3462 53.2614V54.2614H53.3462V53.2614H52.3462ZM24.8244 53.2614V52.2614H23.8244V53.2614H24.8244ZM24.8244 68.7959H23.8244V69.7959H24.8244V68.7959ZM56.0158 68.7959H57.0158V67.7959H56.0158V68.7959ZM56.0158 88V89H57.0158V88H56.0158ZM0.849867 88H-0.150133V89H0.849867V88ZM0.849867 1.76506V0.765062H-0.150133V1.76506H0.849867ZM56.0158 1.76506H57.0158V0.765062H56.0158V1.76506ZM56.0158 20.9692V21.9692H57.0158V20.9692H56.0158ZM23.8244 20.9692V35.0358H25.8244V20.9692H23.8244ZM24.8244 36.0358H52.3462V34.0358H24.8244V36.0358ZM51.3462 35.0358V53.2614H53.3462V35.0358H51.3462ZM52.3462 52.2614H24.8244V54.2614H52.3462V52.2614ZM23.8244 53.2614V68.7959H25.8244V53.2614H23.8244ZM24.8244 69.7959H56.0158V67.7959H24.8244V69.7959ZM55.0158 68.7959V88H57.0158V68.7959H55.0158ZM56.0158 87H0.849867V89H56.0158V87ZM1.84987 88V1.76506H-0.150133V88H1.84987ZM0.849867 2.76506H56.0158V0.765062H0.849867V2.76506ZM55.0158 1.76506V20.9692H57.0158V1.76506H55.0158ZM56.0158 19.9692H24.8244V21.9692H56.0158V19.9692ZM168.531 1.76506H169.531V0.765062H168.531V1.76506ZM168.531 88V89H169.531V88H168.531ZM144.557 88H143.557V89H144.557V88ZM144.557 40.4179H145.557L143.61 40.0944L144.557 40.4179ZM128.288 88V89H129.003L129.234 88.3235L128.288 88ZM108.228 88L107.282 88.3235L107.513 89H108.228V88ZM91.8371 40.0509L92.7833 39.7275L90.8371 40.0509H91.8371ZM91.8371 88V89H92.8371V88H91.8371ZM67.8626 88H66.8626V89H67.8626V88ZM67.8626 1.76506V0.765062H66.8626V1.76506H67.8626ZM96.8522 1.76506L97.7849 1.40458L97.5378 0.765062H96.8522V1.76506ZM118.503 57.7872L117.57 58.1477L118.513 60.5889L119.438 58.1406L118.503 57.7872ZM139.664 1.76506V0.765062H138.973L138.728 1.4117L139.664 1.76506ZM167.531 1.76506V88H169.531V1.76506H167.531ZM168.531 87H144.557V89H168.531V87ZM145.557 88V40.4179H143.557V88H145.557ZM143.61 40.0944L127.342 87.6765L129.234 88.3235L145.503 40.7414L143.61 40.0944ZM128.288 87H108.228V89H128.288V87ZM109.174 87.6765L92.7833 39.7275L90.8908 40.3744L107.282 88.3235L109.174 87.6765ZM90.8371 40.0509V88H92.8371V40.0509H90.8371ZM91.8371 87H67.8626V89H91.8371V87ZM68.8626 88V1.76506H66.8626V88H68.8626ZM67.8626 2.76506H96.8522V0.765062H67.8626V2.76506ZM95.9194 2.12554L117.57 58.1477L119.435 57.4267L97.7849 1.40458L95.9194 2.12554ZM119.438 58.1406L140.599 2.11842L138.728 1.4117L117.567 57.4338L119.438 58.1406ZM139.664 2.76506H168.531V0.765062H139.664V2.76506ZM246.64 44.8214L245.77 44.3288L245.767 44.3343L246.64 44.8214ZM235.754 55.0962L236.219 55.9814L236.225 55.9785L235.754 55.0962ZM206.153 58.8881V57.8881H205.153V58.8881H206.153ZM206.153 88V89H207.153V88H206.153ZM182.178 88H181.178V89H182.178V88ZM182.178 1.76506V0.765062H181.178V1.76506H182.178ZM235.632 5.43464L235.178 6.32604L235.185 6.32906L235.632 5.43464ZM246.64 15.5871L245.77 16.0797L245.77 16.0797L246.64 15.5871ZM206.153 21.0915V20.0915H205.153V21.0915H206.153ZM206.153 39.8063H205.153V40.8063H206.153V39.8063ZM249.31 30.51C249.31 35.5655 248.127 40.1648 245.77 44.3288L247.511 45.314C250.047 40.834 251.31 35.8925 251.31 30.51H249.31ZM245.767 44.3343C243.509 48.3841 240.032 51.6815 235.283 54.2138L236.225 55.9785C241.262 53.2919 245.043 49.7394 247.514 45.3084L245.767 44.3343ZM235.289 54.2109C230.657 56.6448 224.914 57.8881 218.018 57.8881V59.8881C225.147 59.8881 231.229 58.6034 236.219 55.9814L235.289 54.2109ZM218.018 57.8881H206.153V59.8881H218.018V57.8881ZM205.153 58.8881V88H207.153V58.8881H205.153ZM206.153 87H182.178V89H206.153V87ZM183.178 88V1.76506H181.178V88H183.178ZM182.178 2.76506H218.018V0.765062H182.178V2.76506ZM218.018 2.76506C224.835 2.76506 230.542 3.96841 235.178 6.32602L236.085 4.54325C231.099 2.0081 225.063 0.765062 218.018 0.765062V2.76506ZM235.185 6.32906C239.918 8.69593 243.432 11.9482 245.77 16.0797L247.511 15.0945C244.957 10.5821 241.131 7.0661 236.079 4.54021L235.185 6.32906ZM245.77 16.0797C248.121 20.2323 249.31 25.0327 249.31 30.51H251.31C251.31 24.7341 250.053 19.5858 247.511 15.0945L245.77 16.0797ZM215.694 40.8063C219.211 40.8063 222.036 40.0029 223.983 38.2198C225.948 36.4213 226.846 33.7867 226.846 30.51H224.846C224.846 33.4309 224.053 35.4444 222.633 36.7447C221.196 38.0603 218.945 38.8063 215.694 38.8063V40.8063ZM226.846 30.51C226.846 27.1963 225.95 24.5327 223.988 22.713C222.041 20.9064 219.214 20.0915 215.694 20.0915V22.0915C218.942 22.0915 221.191 22.8463 222.628 24.1792C224.051 25.499 224.846 27.5447 224.846 30.51H226.846ZM215.694 20.0915H206.153V22.0915H215.694V20.0915ZM205.153 21.0915V39.8063H207.153V21.0915H205.153ZM206.153 40.8063H215.694V38.8063H206.153V40.8063ZM279.023 83.2296L278.531 84.0998L278.539 84.1042L279.023 83.2296ZM262.877 67.4504L262.012 67.951L262.015 67.9572L262.019 67.9634L262.877 67.4504ZM262.877 21.8254L262.016 21.317L262.014 21.3202L262.877 21.8254ZM323.548 6.04623L323.058 6.91839L323.063 6.92089L323.548 6.04623ZM339.571 21.8254L338.706 22.326L338.708 22.3306L339.571 21.8254ZM339.571 67.4504L340.434 67.9556L340.437 67.951L339.571 67.4504ZM323.548 83.2296L324.032 84.1042L324.04 84.0997L323.548 83.2296ZM315.719 60.6005L314.975 59.9324L314.968 59.9409L315.719 60.6005ZM315.719 28.4306L314.968 29.0902L314.975 29.0984L314.982 29.1063L315.719 28.4306ZM286.73 28.4306L287.474 29.0979L287.481 29.0902L286.73 28.4306ZM286.73 60.7229L285.978 61.3825L285.985 61.3901L286.73 60.7229ZM301.286 87.8562C293.374 87.8562 286.122 86.0202 279.508 82.3549L278.539 84.1042C285.462 87.9412 293.051 89.8562 301.286 89.8562V87.8562ZM279.516 82.3594C272.899 78.6122 267.643 73.4757 263.736 66.9374L262.019 67.9634C266.103 74.7986 271.611 80.1816 278.531 84.0997L279.516 82.3594ZM263.743 66.9498C259.924 60.3464 258.006 52.8971 258.006 44.5767H256.006C256.006 53.2179 258.002 61.0178 262.012 67.951L263.743 66.9498ZM258.006 44.5767C258.006 36.2562 259.924 28.8498 263.74 22.3306L262.014 21.3202C258.002 28.1745 256.006 35.9357 256.006 44.5767H258.006ZM263.738 22.3338C267.645 15.7164 272.898 10.5842 279.508 6.92089L278.539 5.17158C271.612 9.01049 266.101 14.3978 262.016 21.317L263.738 22.3338ZM279.508 6.92089C286.122 3.2556 293.374 1.41956 301.286 1.41956V-0.580445C293.051 -0.580445 285.462 1.33463 278.539 5.17158L279.508 6.92089ZM301.286 1.41956C309.28 1.41956 316.531 3.25643 323.058 6.91838L324.037 5.17409C317.191 1.33379 309.6 -0.580445 301.286 -0.580445V1.41956ZM323.063 6.92089C329.671 10.5832 334.881 15.7129 338.706 22.326L340.437 21.3248C336.433 14.4013 330.961 9.01151 324.032 5.17158L323.063 6.92089ZM338.708 22.3306C342.525 28.8498 344.443 36.2562 344.443 44.5767H346.443C346.443 35.9357 344.447 28.1745 340.434 21.3202L338.708 22.3306ZM344.443 44.5767C344.443 52.8971 342.525 60.3464 338.706 66.9498L340.437 67.951C344.447 61.0178 346.443 53.2179 346.443 44.5767H344.443ZM338.708 66.9452C334.884 73.4792 329.67 78.6133 323.055 82.3594L324.04 84.0997C330.961 80.1805 336.431 74.7952 340.434 67.9556L338.708 66.9452ZM323.063 82.3549C316.449 86.0202 309.197 87.8562 301.286 87.8562V89.8562C309.521 89.8562 317.109 87.9412 324.032 84.1042L323.063 82.3549ZM301.286 67.5942C307.641 67.5942 312.745 65.5059 316.471 61.2601L314.968 59.9409C311.68 63.6867 307.162 65.5942 301.286 65.5942V67.5942ZM316.463 61.2687C320.254 57.0474 322.101 51.4472 322.101 44.5767H320.101C320.101 51.0798 318.361 56.1621 314.975 59.9324L316.463 61.2687ZM322.101 44.5767C322.101 37.5515 320.258 31.9021 316.456 27.7549L314.982 29.1063C318.356 32.7875 320.101 37.9022 320.101 44.5767H322.101ZM316.471 27.771C312.745 23.5253 307.641 21.437 301.286 21.437V23.437C307.162 23.437 311.68 25.3444 314.968 29.0902L316.471 27.771ZM301.286 21.437C294.853 21.437 289.706 23.5223 285.978 27.771L287.481 29.0902C290.766 25.3475 295.323 23.437 301.286 23.437V21.437ZM285.985 27.7634C282.269 31.911 280.47 37.5572 280.47 44.5767H282.47C282.47 37.8966 284.177 32.7787 287.474 29.0979L285.985 27.7634ZM280.47 44.5767C280.47 51.5195 282.271 57.1587 285.978 61.3824L287.481 60.0633C284.175 56.2954 282.47 51.1706 282.47 44.5767H280.47ZM285.985 61.3901C289.715 65.5544 294.86 67.5942 301.286 67.5942V65.5942C295.316 65.5942 290.757 63.7197 287.474 60.0556L285.985 61.3901ZM477.683 1.76506L478.654 2.00338L478.958 0.765062H477.683V1.76506ZM456.522 88V89H457.306L457.493 88.2383L456.522 88ZM427.043 88L426.067 88.2191L426.243 89H427.043V88ZM415.178 35.1582L416.154 34.9391L414.203 34.9348L415.178 35.1582ZM403.068 88V89H403.865L404.043 88.2234L403.068 88ZM373.589 88L372.618 88.2357L372.803 89H373.589V88ZM352.673 1.76506V0.765062H351.401L351.701 2.00078L352.673 1.76506ZM378.605 1.76506L379.59 1.59735L379.449 0.765062H378.605V1.76506ZM388.635 60.7229L387.649 60.8906L389.609 60.9473L388.635 60.7229ZM402.212 1.76506V0.765062H401.416L401.238 1.54065L402.212 1.76506ZM428.511 1.76506L429.486 1.54468L429.31 0.765062H428.511V1.76506ZM441.721 60.2336L440.746 60.454L442.707 60.4027L441.721 60.2336ZM451.751 1.76506V0.765062H450.908L450.766 1.59598L451.751 1.76506ZM476.712 1.52674L455.551 87.7617L457.493 88.2383L478.654 2.00338L476.712 1.52674ZM456.522 87H427.043V89H456.522V87ZM428.019 87.7809L416.154 34.9391L414.202 35.3772L426.067 88.2191L428.019 87.7809ZM414.203 34.9348L402.094 87.7766L404.043 88.2234L416.153 35.3815L414.203 34.9348ZM403.068 87H373.589V89H403.068V87ZM374.561 87.7643L353.645 1.52934L351.701 2.00078L372.618 88.2357L374.561 87.7643ZM352.673 2.76506H378.605V0.765062H352.673V2.76506ZM377.619 1.93278L387.649 60.8906L389.621 60.5551L379.59 1.59735L377.619 1.93278ZM389.609 60.9473L403.187 1.98948L401.238 1.54065L387.66 60.4984L389.609 60.9473ZM402.212 2.76506H428.511V0.765062H402.212V2.76506ZM427.535 1.98545L440.746 60.454L442.697 60.0132L429.486 1.54468L427.535 1.98545ZM442.707 60.4027L452.737 1.93414L450.766 1.59598L440.736 60.0645L442.707 60.4027ZM451.751 2.76506H477.683V0.765062H451.751V2.76506ZM511.831 20.9692V19.9692H510.831V20.9692H511.831ZM511.831 35.0358H510.831V36.0358H511.831V35.0358ZM539.353 35.0358H540.353V34.0358H539.353V35.0358ZM539.353 53.2614V54.2614H540.353V53.2614H539.353ZM511.831 53.2614V52.2614H510.831V53.2614H511.831ZM511.831 68.7959H510.831V69.7959H511.831V68.7959ZM543.022 68.7959H544.022V67.7959H543.022V68.7959ZM543.022 88V89H544.022V88H543.022ZM487.856 88H486.856V89H487.856V88ZM487.856 1.76506V0.765062H486.856V1.76506H487.856ZM543.022 1.76506H544.022V0.765062H543.022V1.76506ZM543.022 20.9692V21.9692H544.022V20.9692H543.022ZM510.831 20.9692V35.0358H512.831V20.9692H510.831ZM511.831 36.0358H539.353V34.0358H511.831V36.0358ZM538.353 35.0358V53.2614H540.353V35.0358H538.353ZM539.353 52.2614H511.831V54.2614H539.353V52.2614ZM510.831 53.2614V68.7959H512.831V53.2614H510.831ZM511.831 69.7959H543.022V67.7959H511.831V69.7959ZM542.022 68.7959V88H544.022V68.7959H542.022ZM543.022 87H487.856V89H543.022V87ZM488.856 88V1.76506H486.856V88H488.856ZM487.856 2.76506H543.022V0.765062H487.856V2.76506ZM542.022 1.76506V20.9692H544.022V1.76506H542.022ZM543.022 19.9692H511.831V21.9692H543.022V19.9692ZM598.537 88L597.657 88.4741L597.94 89H598.537V88ZM581.412 56.197L582.293 55.7229L582.01 55.197H581.412V56.197ZM578.844 56.197V55.197H577.844V56.197H578.844ZM578.844 88V89H579.844V88H578.844ZM554.869 88H553.869V89H554.869V88ZM554.869 1.76506V0.765062H553.869V1.76506H554.869ZM610.28 5.43464L609.826 6.3261L609.839 6.33209L610.28 5.43464ZM621.166 15.3425L620.3 15.8422L620.304 15.8495L621.166 15.3425ZM619.943 44.9437L619.134 44.3555L619.132 44.3582L619.943 44.9437ZM605.876 54.3623L605.587 53.4051L604.379 53.7706L605.01 54.8628L605.876 54.3623ZM625.325 88V89H627.058L626.191 87.4995L625.325 88ZM578.844 39.8063H577.844V40.8063H578.844V39.8063ZM598.048 37.4822L597.359 36.7572L597.359 36.7572L598.048 37.4822ZM597.925 24.2718L597.218 24.9789L597.236 24.9965L597.255 25.0133L597.925 24.2718ZM578.844 21.8254V20.8254H577.844V21.8254H578.844ZM599.418 87.5259L582.293 55.7229L580.532 56.6711L597.657 88.4741L599.418 87.5259ZM581.412 55.197H578.844V57.197H581.412V55.197ZM577.844 56.197V88H579.844V56.197H577.844ZM578.844 87H554.869V89H578.844V87ZM555.869 88V1.76506H553.869V88H555.869ZM554.869 2.76506H592.666V0.765062H554.869V2.76506ZM592.666 2.76506C599.483 2.76506 605.19 3.96841 609.826 6.32602L610.733 4.54325C605.747 2.0081 599.711 0.765062 592.666 0.765062V2.76506ZM609.839 6.33209C614.489 8.61811 617.962 11.7899 620.3 15.8422L622.032 14.8428C619.477 10.4143 615.692 6.98083 610.721 4.53719L609.839 6.33209ZM620.304 15.8495C622.653 19.8422 623.836 24.3535 623.836 29.4092H625.836C625.836 24.027 624.572 19.1605 622.028 14.8355L620.304 15.8495ZM623.836 29.4092C623.836 35.0823 622.264 40.0518 619.134 44.3555L620.752 45.5319C624.145 40.8655 625.836 35.4786 625.836 29.4092H623.836ZM619.132 44.3582C616.103 48.5518 611.616 51.5804 605.587 53.4051L606.166 55.3194C612.531 53.393 617.422 50.1425 620.754 45.5292L619.132 44.3582ZM605.01 54.8628L624.459 88.5005L626.191 87.4995L606.742 53.8617L605.01 54.8628ZM625.325 87H598.537V89H625.325V87ZM578.844 40.8063H590.709V38.8063H578.844V40.8063ZM590.709 40.8063C594.112 40.8063 596.851 39.9988 598.737 38.2072L597.359 36.7572C595.983 38.0644 593.829 38.8063 590.709 38.8063V40.8063ZM598.737 38.2072C600.622 36.4161 601.494 33.8767 601.494 30.7547H599.494C599.494 33.504 598.736 35.4496 597.359 36.7572L598.737 38.2072ZM601.494 30.7547C601.494 27.7612 600.56 25.3069 598.596 23.5302L597.255 25.0133C598.716 26.3353 599.494 28.203 599.494 30.7547H601.494ZM598.633 23.5647C596.752 21.6844 594.052 20.8254 590.709 20.8254V22.8254C593.726 22.8254 595.837 23.5973 597.218 24.9789L598.633 23.5647ZM590.709 20.8254H578.844V22.8254H590.709V20.8254ZM577.844 21.8254V39.8063H579.844V21.8254H577.844Z" fill="url(#paint0_linear_1_1026)" mask="url(#path-1-inside-1_1_1026)"/>
<defs>
<linearGradient id="paint0_linear_1_1026" x1="312" y1="0.999992" x2="312" y2="105.5" gradientUnits="userSpaceOnUse">
<stop stop-color="white"/>
<stop offset="1" stop-color="#080000" stop-opacity="0"/>
</linearGradient>
</defs>
</svg>
