<svg width="40" height="38" viewBox="0 0 40 38" fill="none" xmlns="http://www.w3.org/2000/svg">
<path d="M28.3506 27.5902H2.59918V1.83936H28.3506V27.5902Z" fill="#101010"/>
<path fill-rule="evenodd" clip-rule="evenodd" d="M0.759766 1.83935C0.759766 0.823505 1.58327 0 2.59912 0H28.3505C29.3663 0 30.1899 0.823505 30.1899 1.83935V27.5902C30.1899 28.6061 29.3663 29.4296 28.3505 29.4296H2.59912C1.58327 29.4296 0.759766 28.6061 0.759766 27.5902V1.83935ZM4.43847 3.6787V25.7509H26.5112V3.6787H4.43847Z" fill="#101010"/>
<path d="M13.6358 33.1083C13.6358 35.4787 11.7142 37.4002 9.34394 37.4002C6.97363 37.4002 5.05212 35.4787 5.05212 33.1083C5.05212 30.738 6.97363 28.8165 9.34394 28.8165C11.7142 28.8165 13.6358 30.738 13.6358 33.1083Z" fill="#101010"/>
<path d="M35.708 33.1083C35.708 35.4787 33.7865 37.4002 31.4162 37.4002C29.0459 37.4002 27.1244 35.4787 27.1244 33.1083C27.1244 30.738 29.0459 28.8165 31.4162 28.8165C33.7865 28.8165 35.708 30.738 35.708 33.1083Z" fill="#101010"/>
<path fill-rule="evenodd" clip-rule="evenodd" d="M26.5109 11.6493C26.5109 10.6334 27.3344 9.80994 28.3502 9.80994H30.8032C35.8825 9.80994 39.9999 13.9273 39.9999 19.0067V27.5903C39.9999 28.6062 39.1764 29.4297 38.1606 29.4297H28.3502C27.3344 29.4297 26.5109 28.6062 26.5109 27.5903V11.6493ZM30.1896 13.4886V25.751H36.3212V19.0067C36.3212 15.959 33.8508 13.4886 30.8032 13.4886H30.1896Z" fill="#101010"/>
</svg>
