<svg width="15" height="15" viewBox="0 0 15 15" fill="none" xmlns="http://www.w3.org/2000/svg">
<path fill-rule="evenodd" clip-rule="evenodd" d="M4.78803 0.148438L14.2929 0.148438C14.4609 0.148438 14.6221 0.216484 14.741 0.337608C14.8598 0.458732 14.9265 0.623011 14.9265 0.794306V10.4823C14.9265 10.839 14.6428 11.1282 14.2929 11.1282C13.9429 11.1282 13.6592 10.839 13.6592 10.4823V2.35357L2.0678 14.1684C1.82035 14.4206 1.41914 14.4206 1.17168 14.1684C0.924219 13.9161 0.924219 13.5072 1.17168 13.255L12.7631 1.44017L4.78803 1.44017C4.43807 1.44017 4.15437 1.15101 4.15437 0.794306C4.15437 0.437603 4.43807 0.148438 4.78803 0.148438Z" fill="#FFD11A"/>
</svg>
