<svg width="31" height="30" viewBox="0 0 31 30" fill="none" xmlns="http://www.w3.org/2000/svg">
<g id="Media / Icon/Filled/x-circle">
<path id="Icon" opacity="0.63" fill-rule="evenodd" clip-rule="evenodd" d="M15.4975 24.921C21.1402 24.921 25.7145 20.3467 25.7145 14.704C25.7145 9.06135 21.1402 4.48706 15.4975 4.48706C9.85481 4.48706 5.28052 9.06135 5.28052 14.704C5.28052 20.3467 9.85481 24.921 15.4975 24.921ZM13.8463 11.2467C13.3476 10.748 12.5389 10.748 12.0402 11.2467C11.5414 11.7455 11.5414 12.5541 12.0402 13.0528L13.6914 14.704L12.0402 16.3552C11.5414 16.854 11.5414 17.6626 12.0402 18.1613C12.5389 18.6601 13.3476 18.6601 13.8463 18.1613L15.4975 16.5102L17.1487 18.1613C17.6474 18.6601 18.456 18.6601 18.9548 18.1613C19.4535 17.6626 19.4535 16.854 18.9548 16.3552L17.3036 14.704L18.9548 13.0528C19.4535 12.5541 19.4535 11.7455 18.9548 11.2467C18.456 10.748 17.6474 10.748 17.1487 11.2467L15.4975 12.8979L13.8463 11.2467Z" fill="#CF9898"/>
</g>
</svg>
